<?xml version="1.0" standalone="no"?>
<!DOCTYPE svg PUBLIC "-//W3C//DTD SVG 20010904//EN"
 "http://www.w3.org/TR/2001/REC-SVG-20010904/DTD/svg10.dtd">
<svg version="1.0" xmlns="http://www.w3.org/2000/svg"
 width="1200.000000pt" height="1200.000000pt" viewBox="0 0 1200.000000 1200.000000"
 preserveAspectRatio="xMidYMid meet">
<metadata>
Created by potrace 1.14, written by Peter Selinger 2001-2017
</metadata>
<g transform="translate(0.000000,1200.000000) scale(0.100000,-0.100000)"
fill="#000000" stroke="none">
<path d="M3714 10654 c-95 -28 -180 -102 -223 -194 l-26 -55 -2 -465 c-2 -256
-5 -924 -7 -1485 -2 -561 -6 -1036 -9 -1055 -3 -19 -10 -46 -15 -60 -5 -14
-10 -28 -11 -32 0 -5 -1 -9 -2 -10 0 -2 -2 -12 -4 -23 -6 -34 -37 -128 -55
-170 -9 -22 -23 -55 -31 -72 -8 -18 -17 -33 -21 -33 -5 0 -8 -9 -8 -20 0 -11
-4 -20 -9 -20 -5 0 -12 -11 -15 -25 -4 -14 -11 -25 -16 -25 -6 0 -10 -5 -10
-12 0 -11 -85 -128 -130 -178 -12 -14 -32 -36 -44 -50 -11 -14 -48 -47 -81
-75 -33 -27 -62 -52 -65 -55 -9 -9 -110 -80 -114 -80 -3 0 -39 -22 -80 -50
-42 -27 -79 -50 -84 -50 -4 0 -17 -9 -29 -19 -11 -10 -34 -26 -51 -35 -17 -9
-50 -29 -74 -45 -90 -59 -593 -378 -625 -396 -10 -5 -33 -20 -50 -32 -17 -13
-33 -23 -36 -23 -3 0 -32 -17 -64 -38 -32 -21 -80 -52 -108 -70 -27 -17 -55
-36 -62 -42 -7 -5 -14 -10 -17 -10 -6 0 -108 -66 -126 -82 -8 -7 -17 -13 -20
-12 -3 0 -42 -23 -88 -53 -45 -29 -84 -53 -86 -53 -4 0 -70 -42 -126 -80 -27
-18 -196 -124 -254 -160 -32 -19 -64 -41 -72 -48 -8 -7 -14 -10 -14 -5 0 4 -4
3 -8 -3 -4 -5 -92 -64 -197 -129 -303 -189 -418 -266 -445 -294 -38 -41 -70
-81 -66 -81 2 0 -4 -21 -13 -47 -53 -143 6 -323 134 -411 17 -11 57 -29 88
-40 55 -18 94 -19 705 -21 356 -1 1088 -4 1627 -7 539 -3 996 -4 1015 -3 19 0
58 2 85 3 28 1 57 -2 66 -6 8 -3 21 -3 28 1 7 5 30 5 52 1 22 -4 42 -4 44 1 3
4 18 4 34 -1 16 -4 31 -6 34 -4 6 6 97 10 97 4 0 -3 25 -5 55 -5 30 0 55 3 55
7 0 4 10 5 23 2 12 -3 29 -7 37 -8 8 -2 22 0 31 5 9 5 19 6 22 2 3 -3 59 -7
124 -9 105 -4 168 -9 168 -14 0 -1 14 -3 30 -6 30 -4 35 -5 90 -18 59 -15 151
-49 225 -83 67 -30 207 -109 220 -123 3 -3 25 -21 50 -40 25 -19 47 -37 50
-40 3 -3 52 -46 110 -95 58 -49 107 -92 110 -95 3 -3 39 -34 80 -70 41 -36 80
-69 86 -75 11 -10 100 -87 157 -135 16 -14 44 -38 62 -55 18 -16 54 -48 79
-69 26 -21 60 -51 76 -65 15 -14 52 -46 81 -71 29 -25 63 -55 76 -67 13 -11
42 -35 63 -53 21 -18 50 -42 63 -53 66 -60 166 -148 202 -178 22 -19 54 -46
70 -61 43 -39 74 -65 124 -106 24 -21 51 -44 60 -52 9 -9 50 -45 91 -80 41
-36 80 -69 86 -75 6 -5 33 -29 60 -52 53 -44 58 -49 154 -133 69 -60 72 -63
151 -132 30 -25 63 -54 75 -65 12 -10 50 -43 84 -73 35 -30 74 -64 86 -75 13
-11 42 -36 64 -55 23 -19 47 -40 53 -45 30 -26 163 -141 173 -150 6 -5 40 -35
75 -65 35 -30 73 -64 85 -76 12 -11 37 -29 55 -40 183 -108 417 -38 506 151
l28 60 2 500 c2 275 4 943 6 1485 2 542 6 996 10 1010 4 14 12 50 18 80 6 30
15 63 20 72 6 11 5 19 -2 24 -6 3 -871 6 -1923 6 -1578 0 -1916 3 -1937 14
-28 14 -58 54 -64 85 -2 10 -7 24 -10 29 -7 11 -8 124 -1 156 5 23 13 93 21
169 3 28 7 66 10 85 8 51 17 133 17 150 1 36 -1 37 -54 23 -29 -8 -64 -16 -78
-19 -40 -7 -53 -10 -80 -17 -52 -12 -206 -47 -230 -51 -14 -2 -43 -9 -65 -14
-22 -6 -56 -14 -75 -17 -19 -3 -62 -12 -95 -20 -33 -8 -71 -17 -85 -19 -14 -3
-43 -10 -65 -15 -22 -6 -56 -13 -75 -16 -19 -4 -39 -8 -45 -9 -5 -1 -16 -5
-22 -9 -7 -5 -13 -6 -13 -3 0 2 -28 -2 -62 -11 -35 -8 -72 -16 -83 -19 -41 -8
-61 -13 -110 -24 -27 -6 -61 -14 -74 -16 -12 -3 -53 -12 -90 -20 -36 -9 -75
-18 -86 -20 -11 -2 -72 -15 -135 -29 -63 -15 -122 -28 -130 -30 -8 -1 -80 -17
-160 -35 -80 -17 -154 -34 -165 -36 -11 -3 -31 -7 -45 -10 -14 -3 -54 -12 -90
-20 -36 -9 -78 -18 -95 -21 -16 -3 -54 -11 -84 -19 -29 -7 -58 -11 -62 -8 -5
3 -9 1 -9 -3 0 -5 -8 -9 -17 -10 -20 -1 -61 -10 -113 -23 -19 -5 -46 -11 -60
-14 -14 -2 -55 -11 -93 -20 -37 -9 -82 -18 -100 -21 -17 -3 -50 -11 -72 -17
-22 -5 -51 -12 -65 -15 -14 -2 -72 -15 -130 -28 -58 -13 -116 -26 -130 -29
-14 -2 -54 -11 -90 -20 -36 -8 -80 -18 -99 -21 -19 -3 -37 -7 -40 -9 -3 -2
-22 -7 -41 -10 -19 -3 -82 -16 -140 -30 -58 -14 -116 -27 -130 -30 -14 -3 -36
-8 -50 -11 -14 -3 -41 -8 -60 -11 -19 -3 -43 -10 -52 -15 -10 -5 -18 -8 -18
-5 0 3 -15 0 -32 -5 -18 -5 -46 -12 -63 -15 -16 -2 -55 -10 -85 -17 -67 -16
-107 -6 -116 28 -3 13 -4 28 -1 32 5 7 316 209 421 273 14 8 75 47 136 85 61
39 125 78 143 89 18 10 34 22 35 27 2 5 8 9 13 9 5 0 46 24 92 53 45 29 100
64 122 77 22 13 42 28 43 32 2 4 8 8 14 8 5 0 24 11 42 25 18 14 38 25 43 25
6 0 16 6 22 14 7 8 26 21 44 30 18 9 66 39 107 67 41 27 83 52 93 55 9 4 17 9
17 13 0 4 17 15 38 26 20 11 39 22 42 25 3 4 23 17 45 30 39 23 61 37 282 178
62 40 117 72 123 72 5 0 10 4 10 8 0 5 19 19 43 32 23 13 74 45 113 70 39 26
90 58 112 70 23 13 42 27 42 32 0 4 9 8 20 8 11 0 20 4 20 8 0 5 19 19 43 32
23 13 44 26 47 29 3 3 14 11 25 18 248 145 464 321 609 493 37 44 166 241 166
253 0 5 8 21 18 35 18 28 78 177 82 207 0 3 7 23 15 46 8 22 14 43 14 47 -1 4
0 9 1 12 3 9 9 45 13 75 2 17 6 35 9 40 3 6 6 599 5 1319 l0 1310 22 17 c13
11 33 16 52 14 31 -4 64 -24 55 -33 -3 -2 4 -16 14 -30 11 -13 20 -30 20 -38
0 -7 4 -14 8 -16 11 -4 112 -175 112 -188 0 -6 3 -10 8 -10 4 0 16 -17 27 -37
10 -21 27 -49 36 -63 9 -14 28 -46 41 -71 45 -81 53 -94 59 -99 4 -3 17 -25
30 -49 13 -24 29 -51 34 -60 6 -9 30 -50 54 -91 24 -41 70 -118 101 -170 31
-52 76 -129 100 -170 23 -41 58 -98 76 -127 19 -28 34 -54 34 -56 0 -3 23 -43
51 -89 49 -78 77 -126 103 -173 16 -29 156 -266 172 -292 8 -13 14 -26 13 -29
0 -4 3 -10 8 -13 8 -5 56 -83 76 -121 4 -8 17 -31 30 -51 12 -20 49 -82 82
-138 33 -57 68 -115 77 -129 9 -15 23 -38 31 -52 25 -45 53 -92 161 -273 58
-99 106 -180 106 -182 0 -2 12 -21 26 -42 14 -21 30 -47 35 -58 5 -11 15 -29
21 -40 28 -42 63 -101 73 -120 10 -19 21 -20 323 -20 172 0 312 -4 312 -8 0
-5 6 -5 12 -1 17 11 468 11 468 1 0 -5 6 -5 12 -1 17 11 468 11 468 1 0 -5 6
-5 12 -1 17 11 468 11 468 1 0 -5 6 -5 12 -1 17 11 468 11 468 1 0 -5 6 -5 12
-1 17 11 468 11 468 1 0 -5 6 -5 12 -1 17 11 468 11 468 1 0 -5 6 -5 12 -1 17
11 468 11 468 1 0 -5 6 -5 12 -1 17 11 468 11 468 1 0 -5 6 -5 12 -1 17 11
468 11 468 1 0 -5 6 -5 12 -1 17 11 468 11 468 1 0 -5 5 -5 12 -1 7 4 48 8 93
9 l80 1 135 86 c74 48 193 124 265 170 71 46 146 99 166 118 56 54 93 141 96
222 5 180 -105 328 -272 366 -22 5 -297 10 -611 11 -315 1 -581 4 -593 6 -12
2 -21 -1 -21 -6 0 -6 -5 -7 -12 -3 -14 9 -92 9 -107 0 -6 -4 -11 -4 -11 1 0
10 -152 9 -168 -1 -7 -4 -12 -4 -12 1 0 4 -543 9 -1208 11 -1013 2 -1381 5
-1504 15 -10 1 -18 4 -18 8 0 3 -11 5 -25 4 -14 -2 -25 0 -25 3 0 4 -10 7 -22
8 -23 1 -51 7 -78 16 -8 3 -40 13 -70 23 -30 10 -61 22 -67 28 -7 5 -13 7 -13
4 0 -5 -143 65 -196 96 -39 23 -109 72 -129 91 -11 10 -36 30 -55 45 -19 14
-46 37 -60 51 -14 14 -52 47 -85 75 -33 27 -67 57 -75 65 -8 8 -42 37 -75 65
-33 27 -62 52 -65 55 -3 3 -54 48 -115 100 -60 52 -112 98 -115 101 -5 6 -126
109 -169 145 -13 10 -35 30 -50 44 -14 14 -68 61 -120 105 -52 44 -107 91
-121 105 -15 14 -46 41 -71 61 -24 21 -56 48 -70 60 -14 13 -54 49 -89 79 -35
30 -71 62 -80 70 -14 13 -67 58 -170 146 -14 12 -70 61 -125 109 -55 48 -127
111 -160 140 -33 29 -76 65 -95 81 -19 16 -42 36 -50 44 -9 8 -43 38 -75 65
-76 66 -90 78 -155 135 -73 64 -96 84 -154 133 -27 23 -61 53 -77 67 -15 14
-38 34 -50 44 -27 22 -161 138 -169 146 -23 25 -132 111 -161 127 -74 42 -178
53 -265 27z"/>
<path d="M5857 6514 c-1 -1 -23 -5 -49 -8 -137 -18 -267 -85 -372 -190 -45
-45 -87 -90 -94 -101 -6 -11 -23 -37 -37 -58 -14 -21 -25 -40 -25 -43 0 -2 -8
-23 -19 -47 -63 -141 -85 -255 -84 -427 2 -355 198 -551 550 -551 56 0 112 3
125 6 13 2 37 7 53 10 231 44 403 195 479 423 l14 42 -37 1 c-42 1 -294 1
-331 0 -20 -1 -30 -11 -48 -51 -26 -57 -80 -116 -120 -131 -140 -55 -252 4
-277 146 -14 74 -5 247 15 299 5 14 8 26 5 26 -7 0 26 104 37 118 6 6 7 12 4
12 -4 0 8 28 26 62 28 54 82 117 130 155 24 18 84 31 127 28 108 -9 152 -55
165 -175 l3 -25 192 -1 c105 0 191 2 192 5 5 34 4 71 -2 71 -4 0 -6 8 -5 18 7
41 -39 153 -88 214 -20 25 -119 108 -129 108 -2 0 -20 6 -38 14 -19 8 -36 14
-39 14 -3 1 -17 5 -31 11 -41 15 -105 23 -202 25 -48 2 -88 1 -90 0z"/>
<path d="M7695 6490 l-559 -5 -8 -35 c-4 -19 -10 -48 -13 -65 -2 -16 -12 -61
-20 -99 -10 -44 -12 -72 -6 -76 6 -3 89 -5 186 -5 l176 1 -6 -36 c-3 -19 -7
-45 -9 -57 -2 -11 -7 -29 -10 -40 -3 -10 -8 -34 -11 -53 -3 -19 -10 -51 -15
-70 -5 -19 -11 -48 -14 -65 -6 -37 -9 -50 -41 -193 -13 -62 -24 -116 -24 -120
1 -4 0 -9 -1 -12 -1 -3 -3 -12 -5 -20 -7 -29 -34 -156 -39 -180 -3 -14 -10
-47 -16 -75 -6 -27 -12 -61 -15 -75 -2 -14 -8 -40 -14 -57 -5 -18 -6 -34 -3
-37 4 -2 89 -3 190 -3 205 0 195 -3 207 77 4 25 8 47 10 50 2 3 6 23 9 45 4
22 11 56 16 75 5 19 11 49 14 65 2 17 20 102 39 190 20 88 38 174 40 190 3 17
10 53 17 80 6 28 14 61 16 75 2 14 12 57 20 95 9 39 18 84 21 100 3 17 9 35
14 41 5 6 72 10 185 10 97 -1 180 1 184 4 4 3 10 19 13 35 3 17 13 66 22 110
25 121 27 133 18 137 -4 1 -260 1 -568 -2z"/>
<path d="M8950 6470 c-6 -11 -9 -20 -6 -20 2 0 -1 -19 -6 -42 -5 -24 -12 -54
-14 -68 -3 -14 -9 -42 -15 -62 -5 -20 -12 -56 -15 -80 -4 -24 -10 -45 -15 -46
-5 -2 -7 -8 -4 -12 3 -5 0 -30 -6 -57 -6 -26 -13 -59 -15 -73 -3 -14 -11 -53
-19 -88 -8 -34 -17 -77 -21 -95 -7 -38 -12 -60 -14 -67 -1 -3 -3 -9 -4 -15 -1
-5 -6 -32 -11 -60 -10 -58 -12 -64 -15 -67 -1 -2 -3 -10 -5 -18 -1 -8 -10 -51
-19 -95 -10 -44 -20 -91 -22 -105 -3 -14 -14 -63 -24 -110 -10 -47 -22 -100
-25 -118 -3 -19 -7 -39 -8 -45 -1 -9 49 -12 188 -12 105 0 189 3 188 7 -1 4 5
36 13 70 9 35 20 86 25 113 10 52 15 79 34 165 4 14 8 35 11 48 12 62 15 78
19 92 2 8 4 18 4 21 1 3 124 5 274 4 149 0 280 3 290 8 10 5 16 14 13 22 -2 7
-2 16 2 20 4 4 8 11 8 16 1 5 2 10 3 12 2 1 4 13 6 27 2 14 11 58 19 98 21 95
21 92 -13 82 -16 -4 -32 -6 -35 -3 -5 5 -178 7 -201 3 -5 -1 -12 -2 -15 -1
-17 7 -110 5 -110 -2 0 -5 -5 -5 -11 -1 -6 3 -45 6 -85 6 -72 -1 -81 3 -74 33
1 6 4 26 7 45 2 19 7 42 10 50 3 8 7 22 8 30 1 14 16 86 20 103 2 4 3 10 4 15
0 4 136 7 302 7 189 0 304 4 308 10 8 9 11 24 29 110 3 17 6 40 6 53 1 12 4
22 7 22 3 0 6 6 6 13 1 6 4 27 8 45 l8 32 -491 0 c-481 0 -492 0 -502 -20z"/>
</g>
</svg>
