<?xml version="1.0" encoding="UTF-8"?><svg id="b" xmlns="http://www.w3.org/2000/svg" viewBox="0 0 573.71 249.06"><g id="c"><path d="M141.37,149.81l10.74-50.67h17.29c2.56,12.49,6.12,27.6,6.88,34.5h.22c.76-5.74,2.6-15.21,4.31-23.29l2.37-11.21h13.08l-10.74,50.67h-16.47c-2.17-10.31-6.5-29.71-7.15-36.25h-.2c-.83,6.2-2.81,15.52-4.7,24.44l-2.49,11.81h-13.13Z" fill="#0b233f"/><path d="M235.91,129.06h-21.94l-2.18,10.26h25.08l-3.75,10.49h-37.17l10.74-50.67h36.52l-2.22,10.49h-22.85l-1.9,8.95h21.94l-2.27,10.49Z" fill="#0b233f"/><path d="M248.86,149.81l-.98-50.67h14.13c-.6,14.27-1.15,29.3-2.09,36.31h.2c3.3-9.4,10.52-24.72,15.31-36.31h12.37c.03,10.25,.5,25.53-.08,35.7l.2,.03c2.21-7.5,6.06-17.95,13.17-35.72h13.72l-23.31,50.67h-14.33c.06-9.61-.06-23.02,.22-32.86h-.15c-3.26,9.72-10.05,23.84-14.08,32.86h-14.32Z" fill="#0b233f"/><path d="M341.74,133.96c.34,4.09,2.89,6.92,8.17,6.92,4.19,0,6.73-1.46,6.73-5.1,0-3.26-2.32-4.89-8.31-6.84-10.83-3.53-15.12-7.72-15.12-14.48,0-9.22,6.76-16.26,20.4-16.26,12.36,0,20.01,5.73,20.18,15.57h-13.8c-.09-2.32-1.1-5.63-6.61-5.63-3.33,0-5.78,1.42-5.78,4.49,0,2.39,1.85,3.9,7.8,5.83,11.31,3.66,16.03,8.17,16.03,15.61,0,9.64-7.05,16.69-22.34,16.69-13.96,0-20.88-6.56-21.18-16.79h13.83Z" fill="#0b233f"/><path d="M391.62,109.62h-13.9l2.27-10.49h41.79l-2.27,10.49h-13.8l-8.47,40.18h-14.1l8.47-40.18Z" fill="#0b233f"/><path d="M427.7,139.29l-4.94,10.51h-14.66l26.09-50.67h18.46l5.27,50.67h-14.15l-.91-10.51h-15.16Zm15-10.49c-.67-7.7-1.12-14.95-1.27-19.63h-.2c-2.25,5.56-5.45,12.34-8.96,19.63h10.43Z" fill="#0b233f"/><path d="M512.09,112.44c0-7.94-5.65-13.31-16.47-13.31h-21.78l-10.74,50.67h13.95l4.09-19.49h6.64c.54,0,1.02,.04,1.46,.1l1.54,18.44c.01,.33,.04,.64,.08,.93v.02h13.41l-2.59-24.01h0s0,0,0,0c6.31-1.8,10.43-6.46,10.43-13.35Zm-28.87,8.02l2.42-11.47h6.3c4.33,0,5.93,1.98,5.93,5.02,0,4.54-3.36,6.45-8.19,6.45h-6.46Z" fill="#0b233f"/><g id="d"><g><path d="M457.33,187.87c-1.44,4.94-5,7.2-10.03,7.2-5.45,0-8.17-3.25-8.17-8.38,0-5.42,3.09-12.84,11.42-12.84,5.28,0,8.09,2.84,8.06,7.17h-5.78c0-1.52-.46-3.03-2.74-3.03-3.42,0-4.99,5.49-4.99,8.98,0,2.23,.67,3.93,2.78,3.93s2.96-1.34,3.64-3.04h5.81Z" fill="#0b233f"/><path d="M473.02,178.46h-5.61l.92-4.24h16.88l-.92,4.24h-5.57l-3.42,16.23h-5.69l3.42-16.23Z" fill="#0b233f"/><path d="M495.31,174.23h14.66l-.91,4.24h-9.08l-.85,4.23h8.48l-.92,4.22h-8.48l-1.63,7.78h-5.6l4.34-20.46Z" fill="#0b233f"/></g></g><path id="e" d="M569.2,82.64h-249.67c-.77-4.09-4.14-7.69-9.22-7.71l-105.91-.38c-8.69-.03-17.09-3.18-23.65-8.88L107.76,2.32c-6.09-5.29-15.58-.96-15.58,7.11l.03,71.8c0,12.45-6.37,24.03-16.89,30.68L4.4,156.76c-7.95,5.03-4.42,17.33,5,17.36l105.91,.38c8.69,.03,17.09,3.18,23.65,8.88l72.99,63.35c6.09,5.29,15.58,.96,15.58-7.11l-.03-71.8c0-.47,.03-.94,.05-1.41h292.32c2.49,0,4.52-2.02,4.52-4.52s-2.02-4.52-4.52-4.52H138.43c-3.95,0-6.92-3.62-6.13-7.5l2.84-13.99-5.19,1.16s0,.01-.01,.02l-6.94,1.54-1.21,.27h0S13.52,162.89,13.52,162.89c-1.71-.02-2.5-1.6-1.19-2.43l67.09-42.42c13.32-8.42,20.99-20.76,20.98-33.77l-.03-65.54c0-1.19,1.84-1.76,3-1.06l43.98,74.31c.6-.19,1.23-.31,1.89-.31h419.95c2.49,0,4.52-2.02,4.52-4.52h0c0-2.49-2.02-4.52-4.52-4.52Z" fill="#0b233f"/><path id="f" d="M544.52,121.38h-18.86c-2.49,0-4.52,2.02-4.52,4.52s2.02,4.52,4.52,4.52h18.86c2.49,0,4.52-2.02,4.52-4.52s-2.02-4.52-4.52-4.52Z" fill="#0b233f"/><path id="g" d="M557.24,103.43h-27.44c-2.49,0-4.52,2.02-4.52,4.52s2.02,4.52,4.52,4.52h27.44c2.49,0,4.52-2.02,4.52-4.52s-2.02-4.52-4.52-4.52Z" fill="#0b233f"/><path id="h" d="M544.52,121.38h-18.86c-2.49,0-4.52,2.02-4.52,4.52s2.02,4.52,4.52,4.52h18.86c2.49,0,4.52-2.02,4.52-4.52s-2.02-4.52-4.52-4.52Z" fill="#fff" opacity=".4"/><path id="i" d="M557.24,103.43h-27.44c-2.49,0-4.52,2.02-4.52,4.52s2.02,4.52,4.52,4.52h27.44c2.49,0,4.52-2.02,4.52-4.52s-2.02-4.52-4.52-4.52Z" fill="#f7f8f8" opacity=".2"/></g></svg>