<svg viewBox="0 0 2835 2337" xmlns="http://www.w3.org/2000/svg" xmlns:xlink="http://www.w3.org/1999/xlink" xml:space="preserve" overflow="hidden"><g transform="translate(-782 -142)"><rect x="785.5" y="319.5" width="649" height="218" stroke="#747474" stroke-width="6.875" stroke-miterlimit="8" fill="#D9F2D0"/><text fill="#4EA72E" font-weight="400" font-size="83" transform="matrix(1 0 0 1 844.309 457)">ESTABLISHED</text><rect x="2964.5" y="319.5" width="649" height="433" stroke="#747474" stroke-width="6.875" stroke-miterlimit="8" fill="#D9F2D0"/><text fill="#4EA72E" font-weight="400" font-size="83" transform="matrix(1 0 0 1 3023.24 565)">ESTABLISHED</text><text fill="currentColor" font-weight="700" font-size="83" transform="matrix(1 0 0 1 984.105 246)">客户端</text><text fill="currentColor" font-weight="700" font-size="83" transform="matrix(1 0 0 1 3163.03 246)">服务端</text><rect x="785.5" y="537.5" width="649" height="656" stroke="#747474" stroke-width="6.875" stroke-miterlimit="8" fill="#FBE3D6"/><text fill="#E97132" font-weight="400" font-size="83" transform="matrix(1 0 0 1 878.214 894)">FIN_WAIT_1</text><path d="M1432.98 532.097 2927.46 743.966 2926.49 750.773 1432.02 538.904ZM2924.37 733.112 2967.82 753.159 2920.51 760.34Z" fill="currentColor"/><text fill="currentColor" font-weight="400" font-size="64" transform="matrix(0.990268 0.139173 -0.139173 0.990268 1988.85 579)">FIN=1</text><text fill="currentColor" font-weight="400" font-size="64" transform="matrix(0.990268 0.139173 -0.139173 0.990268 2222.6 612)">seq=u</text><text fill="currentColor" font-weight="400" font-size="64" transform="matrix(0.990268 0.139173 -0.139173 0.990268 1987.65 700)">请求断开连接</text><path d="M0.946223-3.3047 1496.65 424.954 1494.76 431.564-0.946223 3.3047ZM1495.08 413.778 1535.36 439.613 1487.51 440.216Z" fill="currentColor" transform="matrix(-1 0 0 1 2967.86 753.5)"/><text fill="currentColor" font-weight="400" font-size="64" transform="matrix(0.962271 -0.272093 0.272093 0.962271 1783.85 1061)">ACK=1</text><text fill="currentColor" font-weight="400" font-size="64" transform="matrix(0.962271 -0.272093 0.272093 0.962271 2029.6 992)">seq=v, ask=u+1</text><text fill="currentColor" font-weight="400" font-size="64" transform="matrix(0.961262 -0.275637 0.275637 0.961262 1742.49 1191)">针对客户端的</text><text fill="currentColor" font-weight="400" font-size="64" transform="matrix(0.961262 -0.275637 0.275637 0.961262 2126.35 1080)">FIN </text><text fill="currentColor" font-weight="400" font-size="64" transform="matrix(0.961262 -0.275637 0.275637 0.961262 2237.04 1049)">的确认应答</text><rect x="2964.5" y="752.5" width="649" height="656" stroke="#747474" stroke-width="6.875" stroke-miterlimit="8" fill="#FBE3D6"/><text fill="#E97132" font-weight="400" font-size="83" transform="matrix(1 0 0 1 3040.29 1110)">CLOSE_WAIT</text><rect x="785.5" y="2256.5" width="649" height="218" stroke="#747474" stroke-width="6.875" stroke-miterlimit="8" fill="#E8E8E8"/><text fill="#747474" font-weight="400" font-size="83" transform="matrix(1 0 0 1 982.245 2395)">CLOSE</text><rect x="2964.5" y="2069.5" width="649" height="406" stroke="#747474" stroke-width="6.875" stroke-miterlimit="8" fill="#E8E8E8"/><text fill="#747474" font-weight="400" font-size="83" transform="matrix(1 0 0 1 3161.17 2301)">CLOSE</text><path d="M0.946223-3.3047 1496.65 424.954 1494.76 431.564-0.946223 3.3047ZM1495.08 413.778 1535.36 439.613 1487.51 440.216Z" fill="currentColor" transform="matrix(-1 0 0 1 2964.86 1407.5)"/><text fill="currentColor" font-weight="400" font-size="64" transform="matrix(0.962271 -0.272093 0.272093 0.962271 1739.06 1721)">FIN=1,</text><text fill="currentColor" font-weight="400" font-size="64" transform="matrix(0.962271 -0.272093 0.272093 0.962271 1935.33 1665)">ACK=1</text><text fill="currentColor" font-weight="400" font-size="64" transform="matrix(0.962271 -0.272093 0.272093 0.962271 2181.07 1596)">seq=w, ask=u+1</text><text fill="currentColor" font-weight="400" font-size="64" transform="matrix(0.961262 -0.275637 0.275637 0.961262 2030.47 1758)">请求断开连接</text><rect x="785.5" y="1193.5" width="649" height="656" stroke="#747474" stroke-width="6.875" stroke-miterlimit="8" fill="#FBE3D6"/><text fill="#E97132" font-weight="400" font-size="83" transform="matrix(1 0 0 1 878.214 1550)">FIN_WAIT_2</text><rect x="2964.5" y="1407.5" width="649" height="662" stroke="#747474" stroke-width="6.875" stroke-miterlimit="8" fill="#DCEAF7"/><text fill="#4E95D9" font-weight="400" font-size="83" transform="matrix(1 0 0 1 3091.61 1768)">LAST_ACK</text><path d="M1436.98 1848.1 2931.46 2059.97 2930.49 2066.77 1436.02 1854.9ZM2928.37 2049.11 2971.82 2069.16 2924.51 2076.34Z" fill="currentColor"/><text fill="currentColor" font-weight="400" font-size="64" transform="matrix(0.990268 0.139173 -0.139173 0.990268 1802.03 1868)">ACK=1</text><text fill="currentColor" font-weight="400" font-size="64" transform="matrix(0.990268 0.139173 -0.139173 0.990268 2054.93 1904)">seq=u+1, ack=w+1</text><text fill="currentColor" font-weight="400" font-size="64" transform="matrix(0.990268 0.139173 -0.139173 0.990268 1768.43 1984)">针对服务端的</text><text fill="currentColor" font-weight="400" font-size="64" transform="matrix(0.990268 0.139173 -0.139173 0.990268 2163.86 2040)">FIN </text><text fill="currentColor" font-weight="400" font-size="64" transform="matrix(0.990268 0.139173 -0.139173 0.990268 2277.9 2056)">的确认应答</text><rect x="785.5" y="1847.5" width="649" height="217" stroke="#747474" stroke-width="6.875" stroke-miterlimit="8" fill="#F2CFEE"/><text fill="#A02B93" font-weight="400" font-size="83" transform="matrix(1 0 0 1 893.97 1985)">TIME_WAIT</text><g><g><g><path d="M59 108.167C31.8452 108.167 9.83333 86.1547 9.83333 59 9.83333 31.8452 31.8452 9.83333 59 9.83333 86.1547 9.83333 108.167 31.8452 108.167 59 108.167 86.1547 86.1547 108.167 59 108.167M59 98.3333C80.7232 98.3333 98.3333 80.7232 98.3333 59 98.3333 37.2768 80.7232 19.6667 59 19.6667 37.2768 19.6667 19.6667 37.2768 19.6667 59 19.6667 80.7232 37.2768 98.3333 59 98.3333M63.9166 59 83.5833 59 83.5833 68.8333 54.0833 68.8333 54.0833 34.4166 63.9166 34.4166Z" fill="#747474" transform="matrix(1 0 0 1.00847 936 2105)"/></g></g></g><text fill="#747474" font-weight="400" font-size="83" transform="matrix(1 0 0 1 1164.42 2194)">2MSL</text><path d="M1112.94 2064.5 1112.94 2092 1106.06 2092 1106.06 2064.5ZM1112.94 2112.62 1112.94 2140.12 1106.06 2140.12 1106.06 2112.62ZM1112.94 2160.75 1112.94 2188.25 1106.06 2188.25 1106.06 2160.75ZM1112.94 2208.88 1112.94 2215.69 1106.06 2215.69 1106.06 2208.88ZM1123.25 2211.11 1109.5 2256.94 1095.75 2211.11Z" fill="#747474"/><path d="M0.946223-3.3047 122.461 31.4883 120.569 38.0977-0.946223 3.3047ZM120.894 20.3125 161.172 46.1477 113.324 46.7502Z" fill="#4EA72E" transform="matrix(-1 0 0 1 2018.67 1355.5)"/><text fill="#4EA72E" font-weight="400" font-size="64" transform="matrix(0.961262 -0.275637 0.275637 0.961262 2083.23 1363)">数据传输</text><path d="M0 0 161.172 46.1477" stroke="#4EA72E" stroke-width="6.875" stroke-miterlimit="8" fill="none" fill-rule="evenodd" transform="matrix(-1 0 0 1 2545.67 1204.5)"/></g></svg>