<svg viewBox="0 0 2840 1587" xmlns="http://www.w3.org/2000/svg" xmlns:xlink="http://www.w3.org/1999/xlink" xml:space="preserve" overflow="hidden"><g transform="translate(-780 -495)"><rect x="783.5" y="672.5" width="649" height="217" stroke="#747474" stroke-width="6.875" stroke-miterlimit="8" fill="#E8E8E8"/><text fill="#747474" font-weight="400" font-size="83" transform="matrix(1 0 0 1 980.356 810)">CLOSE</text><rect x="2967.5" y="672.5" width="649" height="217" stroke="#747474" stroke-width="6.875" stroke-miterlimit="8" fill="#E8E8E8"/><text fill="#747474" font-weight="400" font-size="83" transform="matrix(1 0 0 1 3164.38 810)">CLOSE</text><text fill="currentColor" font-weight="700" font-size="83" transform="matrix(1 0 0 1 982.218 599)">客户端</text><text fill="currentColor" font-weight="700" font-size="83" transform="matrix(1 0 0 1 3166.24 599)">服务端</text><rect x="783.5" y="889.5" width="649" height="656" stroke="#747474" stroke-width="6.875" stroke-miterlimit="8" fill="#FBE3D6"/><text fill="#E97132" font-weight="400" font-size="83" transform="matrix(1 0 0 1 905.591 1247)">SYN_SENT</text><rect x="2967.5" y="888.5" width="649" height="218" stroke="#747474" stroke-width="6.875" stroke-miterlimit="8" fill="#DCEAF7"/><text fill="#4E95D9" font-weight="400" font-size="83" transform="matrix(1 0 0 1 3154.64 1027)">LISTEN</text><path d="M1432.98 885.097 2927.46 1096.97 2926.49 1103.77 1432.02 891.904ZM2924.37 1086.11 2967.82 1106.16 2920.51 1113.34Z" fill="currentColor"/><text fill="currentColor" font-weight="400" font-size="64" transform="matrix(0.990268 0.139173 -0.139173 0.990268 1996.42 933)">SYN=1, seq=u</text><text fill="currentColor" font-weight="400" font-size="64" transform="matrix(0.990268 0.139173 -0.139173 0.990268 1987.65 1053)">请求建立连接</text><rect x="2967.5" y="1105.5" width="649" height="658" stroke="#747474" stroke-width="6.875" stroke-miterlimit="8" fill="#FBE3D6"/><text fill="#E97132" font-weight="400" font-size="83" transform="matrix(1 0 0 1 3088.63 1464)">SYN_RCVD</text><rect x="783.5" y="1545.5" width="649" height="530" stroke="#747474" stroke-width="6.875" stroke-miterlimit="8" fill="#D9F2D0"/><text fill="#4EA72E" font-weight="400" font-size="83" transform="matrix(1 0 0 1 842.421 1840)">ESTABLISHED</text><rect x="2967.5" y="1764.5" width="649" height="314" stroke="#747474" stroke-width="6.875" stroke-miterlimit="8" fill="#D9F2D0"/><text fill="#4EA72E" font-weight="400" font-size="83" transform="matrix(1 0 0 1 3026.44 1950)">ESTABLISHED</text><path d="M1433.98 1543.1 2928.46 1754.97 2927.49 1761.77 1433.02 1549.9ZM2925.37 1744.11 2968.82 1764.16 2921.51 1771.34Z" fill="currentColor"/><text fill="currentColor" font-weight="400" font-size="64" transform="matrix(0.990268 0.139173 -0.139173 0.990268 2079.76 1606)">ACK=1</text><text fill="currentColor" font-weight="400" font-size="64" transform="matrix(0.990268 0.139173 -0.139173 0.990268 2332.66 1641)">seq=u+1, ack=v+1</text><text fill="currentColor" font-weight="400" font-size="64" transform="matrix(0.990268 0.139173 -0.139173 0.990268 1947.18 1700)">针对服务器端的</text><text fill="currentColor" font-weight="400" font-size="64" transform="matrix(0.990268 0.139173 -0.139173 0.990268 2406.16 1765)">SYN </text><text fill="currentColor" font-weight="400" font-size="64" transform="matrix(0.990268 0.139173 -0.139173 0.990268 2536.83 1783)">的确认应答</text><path d="M0.946223-3.3047 1496.65 424.954 1494.76 431.564-0.946223 3.3047ZM1495.08 413.778 1535.36 439.613 1487.51 440.216Z" fill="currentColor" transform="matrix(-1 0 0 1 2967.86 1106.5)"/><text fill="currentColor" font-weight="400" font-size="64" transform="matrix(0.962271 -0.272093 0.272093 0.962271 1670.23 1445)">SYN=1, ACK=1</text><text fill="currentColor" font-weight="400" font-size="64" transform="matrix(0.962271 -0.272093 0.272093 0.962271 2128.41 1315)">ack=u+1, seq=v</text><text fill="currentColor" font-weight="400" font-size="64" transform="matrix(0.961262 -0.275637 0.275637 0.961262 1731.83 1545)">针对客户端的</text><text fill="currentColor" font-weight="400" font-size="64" transform="matrix(0.961262 -0.275637 0.275637 0.961262 2115.69 1435)">SYN </text><text fill="currentColor" font-weight="400" font-size="64" transform="matrix(0.961262 -0.275637 0.275637 0.961262 2242.53 1398)">的确认应答</text><text fill="currentColor" font-weight="400" font-size="64" transform="matrix(0.961262 -0.275637 0.275637 0.961262 1950.77 1562)">并请求建立连接</text></g></svg>